<?xml version="1.0"?>
<svg xmlns="http://www.w3.org/2000/svg" xmlns:xlink="http://www.w3.org/1999/xlink" version="1.1" id="Capa_1" x="0px" y="0px" width="512px" height="512px" viewBox="0 0 490.379 490.379" style="enable-background:new 0 0 490.379 490.379;" xml:space="preserve" class=""><g><g>
	<path d="M450.785,77.272H39.594C17.762,77.272,0,95.034,0,116.867v256.646c0,21.832,17.762,39.594,39.594,39.594h411.191   c21.832,0,39.594-17.762,39.594-39.594V116.867C490.379,95.034,472.617,77.272,450.785,77.272z M243.093,182.375v162.202h-36.824   v-83.771H118.28v83.771H81.455V182.375c0-3.936-2.249-6.186-6.185-6.186H63.182v-31.203h35.982   c13.494,0,19.115,5.903,19.115,19.115v65.5h87.989v-65.5c0-13.212,5.902-19.115,19.115-19.115h35.982l-12.086,31.203   C245.343,176.189,243.093,178.439,243.093,182.375z M325.115,345.393h-43.991c-13.536,0-19.177-5.64-19.177-19.177V202.783H298.9   l0.094,111.308h24.146c40.045,0,65.705-23.969,65.705-69.09c0-44.556-26.227-68.524-65.705-68.524l-62.256-0.149l13-31.202   l51.229,0.05c61.758,0,102.084,36.66,102.084,99.828C427.197,308.169,386.873,345.393,325.115,345.393z" data-original="#000000" class="active-path" data-old_color="#000000" fill="#FFFFFF"/>
</g></g> </svg>
